<svg viewBox="0 0 804 225" version="1.1" 
  xmlns="http://www.w3.org/2000/svg" 
  xmlns:xlink="http://www.w3.org/1999/xlink">
  <g id="Canvas" fill="none">
    <g id="Wordmark monochrome">
      <g id="simpla" transform="translate(142 10)">
        <path d="M 52.3126 101.668C 56.255 102.881 60.0458 104.17 63.6849 105.535C 67.4757 106.9 70.8115 108.643 73.6925 110.766C 76.5735 112.889 78.848 115.543 80.5159 118.727C 82.3355 121.911 83.2452 125.929 83.2452 130.781C 83.2452 135.937 82.1838 140.486 80.061 144.428C 78.0898 148.219 75.2846 151.403 71.6455 153.981C 68.0064 156.559 63.6849 158.454 58.6811 159.667C 53.8289 161.032 48.5218 161.714 42.7599 161.714C 36.9979 161.714 31.5392 160.956 26.3837 159.44C 21.2283 157.923 16.6794 155.649 12.737 152.616C 8.94621 149.432 5.83778 145.49 3.41169 140.789C 1.13723 136.089 0 130.63 0 124.413L 19.3329 124.413C 19.3329 132.298 21.6074 137.908 26.1563 141.244C 30.8568 144.428 36.6946 146.02 43.6696 146.02C 50.0381 146.02 55.0419 144.883 58.6811 142.609C 62.4718 140.183 64.3672 136.392 64.3672 131.236C 64.3672 128.355 63.6091 126.081 62.0928 124.413C 60.5765 122.593 58.3778 121.001 55.4968 119.637C 52.7675 118.272 49.3558 117.059 45.2618 115.997C 41.1677 114.784 36.543 113.268 31.3876 111.449C 27.4452 110.236 23.7302 108.947 20.2427 107.582C 16.9068 106.217 13.95 104.474 11.3723 102.351C 8.94621 100.228 6.97501 97.6502 5.45871 94.6175C 4.09403 91.5849 3.41169 87.7184 3.41169 83.0178C 3.41169 78.1656 4.39729 73.92 6.36849 70.2808C 8.33969 66.4901 11.069 63.3816 14.5565 60.9555C 18.0441 58.3778 22.1381 56.4824 26.8386 55.2694C 31.5392 53.9047 36.543 53.2224 41.8501 53.2224C 47.4604 53.2224 52.6917 54.0563 57.5439 55.7243C 62.396 57.3922 66.5659 59.8183 70.0534 63.0025C 73.6925 66.0352 76.4977 69.6743 78.4689 73.92C 80.5917 78.1656 81.6531 82.8662 81.6531 88.0216L 62.5477 88.0216C 62.5477 81.9564 60.7281 77.3317 57.089 74.1474C 53.6015 70.8115 48.446 69.1436 41.6226 69.1436C 36.1639 69.1436 31.615 70.3566 27.9759 72.7827C 24.3367 75.2088 22.5172 78.7721 22.5172 83.4727C 22.5172 86.0504 23.1237 88.1732 24.3367 89.8412C 25.7014 91.5091 27.6726 92.9496 30.2503 94.1627C 32.828 95.3757 35.9365 96.5888 39.5756 97.8018C 43.2147 98.8632 47.4604 100.152 52.3126 101.668Z" fill="#fff"/>
        <path d="M 111.482 55.9517L 131.27 55.9517L 131.27 159.212L 111.482 159.212L 111.482 55.9517ZM 105.569 16.831C 105.569 12.4337 107.085 8.64295 110.118 5.4587C 113.15 2.27445 116.865 0.682329 121.262 0.682329C 125.66 0.682329 129.451 2.27445 132.635 5.4587C 135.819 8.64295 137.411 12.4337 137.411 16.831C 137.411 21.2283 135.819 24.9432 132.635 27.9759C 129.451 31.0085 125.66 32.5248 121.262 32.5248C 116.865 32.5248 113.15 31.0085 110.118 27.9759C 107.085 24.9432 105.569 21.2283 105.569 16.831Z" fill="#fff"/>
        <path d="M 300.527 159.212L 300.527 99.8488C 300.527 90.2961 298.632 83.0936 294.841 78.2414C 291.202 73.2376 285.819 70.7357 278.692 70.7357C 270.959 70.7357 264.818 73.6925 260.269 79.6061C 255.72 85.5197 253.446 94.5417 253.446 106.672L 253.446 159.212L 233.658 159.212L 233.658 100.986C 233.658 90.5235 231.763 82.8662 227.972 78.014C 224.333 73.1618 219.026 70.7357 212.051 70.7357C 204.469 70.7357 198.328 73.6925 193.628 79.6061C 188.927 85.5197 186.577 94.5417 186.577 106.672L 186.577 159.212L 166.789 159.212L 166.789 55.9517L 186.577 55.9517L 186.577 74.3749C 188.548 68.6129 192.187 63.6849 197.494 59.5909C 202.801 55.3452 209.321 53.2224 217.055 53.2224C 226.607 53.2224 234.037 55.2694 239.344 59.3634C 244.651 63.3058 248.291 68.6129 250.262 75.2846C 251.323 72.4037 252.915 69.5985 255.038 66.8691C 257.161 64.1398 259.587 61.7895 262.316 59.8183C 265.197 57.8471 268.382 56.255 271.869 55.0419C 275.508 53.8289 279.375 53.2224 283.469 53.2224C 290.292 53.2224 296.054 54.2838 300.755 56.4066C 305.455 58.5294 309.246 61.4104 312.127 65.0496C 315.008 68.6887 317.055 73.0102 318.268 78.014C 319.633 83.0178 320.315 88.3249 320.315 93.9352L 320.315 159.212L 300.527 159.212Z" fill="#fff"/>
        <path d="M 374.042 73.6925C 377.378 67.324 382.306 62.3202 388.826 58.6811C 395.346 55.0419 402.397 53.2224 409.979 53.2224C 417.863 53.2224 425.066 54.6629 431.586 57.5438C 438.258 60.4248 443.868 64.3672 448.417 69.371C 453.118 74.3749 456.757 80.2126 459.334 86.8844C 461.912 93.4045 463.201 100.304 463.201 107.582C 463.201 114.86 461.912 121.759 459.334 128.28C 456.757 134.8 453.118 140.562 448.417 145.565C 443.868 150.569 438.258 154.512 431.586 157.393C 425.066 160.274 417.863 161.714 409.979 161.714C 402.397 161.714 395.346 159.895 388.826 156.255C 382.306 152.616 377.378 147.612 374.042 141.244L 374.042 215.164L 354.254 215.164L 354.254 55.9517L 374.042 55.9517L 374.042 73.6925ZM 409.069 70.9632C 403.762 70.9632 398.91 71.9488 394.512 73.92C 390.267 75.8912 386.627 78.5447 383.595 81.8806C 380.562 85.2164 378.212 89.083 376.544 93.4803C 374.876 97.8776 374.042 102.578 374.042 107.582C 374.042 112.586 374.876 117.286 376.544 121.684C 378.212 126.081 380.562 129.948 383.595 133.283C 386.627 136.468 390.267 139.045 394.512 141.017C 398.91 142.988 403.762 143.973 409.069 143.973C 414.224 143.973 418.925 142.988 423.171 141.017C 427.416 139.045 430.979 136.468 433.86 133.283C 436.893 129.948 439.243 126.081 440.911 121.684C 442.579 117.286 443.413 112.586 443.413 107.582C 443.413 102.578 442.579 97.8776 440.911 93.4803C 439.243 89.083 436.893 85.2164 433.86 81.8806C 430.979 78.5447 427.416 75.8912 423.171 73.92C 418.925 71.9488 414.224 70.9632 409.069 70.9632Z" fill="#fff"/>
        <path d="M 490.411 0L 510.199 0L 510.199 159.212L 490.411 159.212L 490.411 0Z" fill="#fff"/>
        <path d="M 646.021 55.9517L 646.021 159.212L 626.461 159.212L 626.461 141.244C 623.125 147.612 618.121 152.616 611.45 156.255C 604.93 159.895 597.879 161.714 590.297 161.714C 582.412 161.714 575.21 160.274 568.69 157.393C 562.17 154.512 556.559 150.569 551.859 145.565C 547.31 140.562 543.747 134.8 541.169 128.28C 538.591 121.759 537.302 114.86 537.302 107.582C 537.302 100.304 538.591 93.4045 541.169 86.8844C 543.747 80.2126 547.31 74.3749 551.859 69.371C 556.559 64.3672 562.17 60.4248 568.69 57.5438C 575.21 54.6629 582.412 53.2224 590.297 53.2224C 597.879 53.2224 604.93 55.0419 611.45 58.6811C 618.121 62.3202 623.125 67.324 626.461 73.6925L 626.461 55.9517L 646.021 55.9517ZM 591.434 143.973C 596.741 143.973 601.518 142.988 605.763 141.017C 610.161 139.045 613.876 136.468 616.908 133.283C 619.941 129.948 622.291 126.081 623.959 121.684C 625.627 117.286 626.461 112.586 626.461 107.582C 626.461 102.578 625.627 97.8776 623.959 93.4803C 622.291 89.083 619.941 85.2164 616.908 81.8806C 613.876 78.5447 610.161 75.8912 605.763 73.92C 601.518 71.9488 596.741 70.9632 591.434 70.9632C 586.127 70.9632 581.351 71.9488 577.105 73.92C 572.86 75.8912 569.22 78.5447 566.188 81.8806C 563.307 85.2164 561.032 89.083 559.365 93.4803C 557.697 97.8776 556.863 102.578 556.863 107.582C 556.863 112.586 557.697 117.286 559.365 121.684C 561.032 126.081 563.307 129.948 566.188 133.283C 569.22 136.468 572.86 139.045 577.105 141.017C 581.351 142.988 586.127 143.973 591.434 143.973Z" fill="#fff"/>
      </g>
      <g id="Gapped Copy 3">
        <path id="Shape" fill-rule="evenodd" clip-rule="evenodd" d="M 59.6211 9.5083C 59.6211 9.5083 60.8465 0 53.4943 0L 0 0L 35.9946 47.2501L 59.6211 9.5083Z" transform="translate(43.1089 35.0031)" fill="#fff"/>
        <path id="Shape_2" fill-rule="evenodd" clip-rule="evenodd" d="M 25.4049 0L 1.82445 37.7861C -2.15773 43.0159 0.599085 47.2939 7.95127 47.2939C 7.95127 47.2939 61.4012 47.299 61.4012 47.2939C 61.4012 47.2887 25.4049 0 25.4049 0Z" transform="translate(10.3716 141.611)" fill="#fff"/>
        <path id="Shape_3" fill-rule="evenodd" clip-rule="evenodd" d="M 2.71063 39.7922C -1.28565 46.2093 -0.806885 56.3852 3.77489 62.4046L 73.4173 153.891L 98.2166 114.093C 102.215 107.676 101.737 97.5016 97.1553 91.4822L 27.5104 0L 2.71063 39.7922L 2.71063 39.7922Z" transform="translate(7 35)" fill="#fff"/>
      </g>
    </g>
  </g>
</svg>