<svg class="logo" viewBox="0 0 358 101" version="1.1" xmlns="http://www.w3.org/2000/svg" xmlns:xlink="http://www.w3.org/1999/xlink">
  <g stroke="none" stroke-width="1">
    <g transform="translate(-27.000000, -34.000000)">
      <text font-family="GT Walsheim" font-size="101.47593" font-weight="normal">
        <tspan x="84.81293" y="107.249713">simpla</tspan>
      </text>
      <g transform="translate(27.435748, 48.931889)">
        <path d="M42.6579021,4.25922994 C42.6579021,4.25922994 43.2039269,0.017063981 39.9277785,0.017063981 L16.0906264,0.017063981 L32.1299055,21.0978977 L42.6579021,4.25922994 Z"></path>
        <path d="M12.8232752,47.5805505 L2.31578199,64.4389462 C0.541313759,66.7722713 1.76975725,68.6808892 5.04590567,68.6808892 C5.04590567,68.6808892 28.8632946,68.6831805 28.8632966,68.6808886 C28.8632986,68.6785968 12.8232752,47.5805505 12.8232752,47.5805505 Z"></path>
        <path d="M1.20825359,17.7691012 C-0.572495944,20.6321396 -0.359155959,25.1721579 1.682492,27.8577334 L32.7152718,68.6746468 L43.7658792,50.9185471 C45.5475261,48.0557316 45.3346347,43.5163822 43.2929868,40.8308066 L12.2590854,0.015676778 L1.20825359,17.7691012 L1.20825359,17.7691012 Z"></path>
      </g>
    </g>
  </g>
</svg>